<svg xmlns="http://www.w3.org/2000/svg" xml:space="preserve" width="783.0686" height="500" viewBox="0 0 783.0686 499.99999"><defs><linearGradient id="a" x1="0" x2="1" y1="0" y2="0" gradientTransform="matrix(-151.10142 133.26969 133.26969 151.10147 720.609 53.39)" gradientUnits="userSpaceOnUse" spreadMethod="pad"><stop offset="0" style="stop-opacity:1;stop-color:#f99c1b"/><stop offset="0.21043029" style="stop-opacity:1;stop-color:#f99c1b"/><stop offset="0.800003" style="stop-opacity:1;stop-color:#f04e22"/><stop offset="1" style="stop-opacity:1;stop-color:#f04e22"/></linearGradient><linearGradient id="b" x1="0" x2="1" y1="0" y2="0" gradientTransform="scale(-137.92667 137.92667) rotate(57.619 -2.938 -4.772)" gradientUnits="userSpaceOnUse" spreadMethod="pad"><stop offset="0" style="stop-opacity:1;stop-color:#a6ce38"/><stop offset="0.100006" style="stop-opacity:1;stop-color:#a6ce38"/><stop offset="1" style="stop-opacity:1;stop-color:#00a650"/></linearGradient></defs><path d="M592.09 110.551c96.898 1.73 151.903-48.303 100.458-87.238 81.792 45.539 27.79 123.774-72.646 124.45z" style="fill:url(#a);stroke:none;stroke-width:3.14474" transform="matrix(1.33333 0 0 -1.33333 -215.747 219.072)"/><path d="M324.136 20.575c22.312 0 32.127 27.2 32.127 27.2h-93.028c-20.082 0-35.146-11.048-39.822-27.2-4.657-16.148-19.8-68.58-24.205-83.829-4.403-15.264 5.79-27.192 24.12-27.192h72.58c21.596 0 28.294 27.192 28.294 27.192H233.43l8.032 27.793h60.244c19.412 0 28.305 27.2 28.305 27.2h-80.694l8.318 28.836zM559.066 47.776H543.75c-11.173 0-20.913-6.972-24.727-20.164L484.938-90.445h15.324c11.174 0 20.907 6.962 24.718 20.16zM495.693 20.585c4.403 15.252-5.792 27.189-24.114 27.189h-80.634c-11.173 0-20.906-6.969-24.724-20.151l-2.034-7.038-32.052-111.032h15.318c11.174 0 20.916 6.963 24.724 20.161l26.237 90.87h63.043L447.179-28.9H418.04c-18.821 0-27.28-27.186-27.28-27.186h50.828c20.08 0 35.149 11.038 39.819 27.186 4.667 16.139 9.874 34.221 14.286 49.486M672.037 20.575c18.83 0 30.623 27.2 30.623 27.2h-90.754c-20.076 0-35.152-11.048-39.822-27.2-4.663-16.148-4.173-14.468-8.569-29.717-4.421-15.271 5.777-27.205 24.105-27.205h64.797l-7.78-26.907H570.75c-11.17 0-20.912-6.984-24.73-20.158l-2.032-7.034h95.063c20.066 0 35.142 11.034 39.812 27.192 4.658 16.142 3.368 11.655 7.77 26.907 4.407 15.264-5.789 27.205-24.113 27.205H597.73l8.579 29.717z" style="fill:#005daa;fill-opacity:1;fill-rule:nonzero;stroke:none;stroke-width:3.14474" transform="matrix(1.33333 0 0 -1.33333 -215.747 219.072)"/><path d="M638.773 141.888c79.575-9.384 103.283-61.313 82.16-94.059-1.535-2.377-13.724-14.692-13.809-14.746 64.392 46.97 26.73 119.406-53.857 131.221z" style="fill:url(#b);stroke:none;stroke-width:3.14474" transform="matrix(1.33333 0 0 -1.33333 -215.747 219.072)"/><path d="m641.738 146.473-12.34-19.054s41.061-5.255 66.358-22.271c23.978-16.133 38.485-44.627 9.248-73.86 0 0 32.84 20.254 25.702 54.016-7.189 33.973-40.598 53.102-88.968 61.169" style="fill:#005daa;fill-opacity:1;fill-rule:nonzero;stroke:none;stroke-width:3.14474" transform="matrix(1.33333 0 0 -1.33333 -215.747 219.072)"/><path d="M252.778-177.488h18.053v-13.934h6.733v13.934h18.054v4.522h-42.84zM527.218-173.526h18.406v-8.085h6.73v8.085h17.71v4.528h-42.846zM709.854-171.34h10.538v-5.673h6.733v5.673h12.412v4.529h-29.683zM323.435-172.872c.493.49 2.72 2.686 3.298 3.267-7.217 1.255-11.198 6.07-11.198 13.598v6.52h-6.79v-6.52c0-7.528-3.968-12.343-11.189-13.598.582-.581 2.796-2.776 3.293-3.267 4.535.204 8.99 3.736 11.296 7.635 2.283-3.9 6.761-7.43 11.29-7.635M360.769-163.413c2.29-3.88 6.755-7.412 11.274-7.63.506.497 2.739 2.696 3.314 3.274-7.21 1.255-11.195 6.07-11.195 13.582v4.699h-6.783v-4.699c0-7.512-3.99-12.327-11.217-13.582.603-.578 2.824-2.777 3.32-3.273 4.529.217 8.994 3.748 11.287 7.629M338.068-148.215h-6.717v-30.815h6.717v14.85h6.447v4.522h-6.447zM652.938-148.215h6.724v-24.19h-6.724v10.228h-6.434v4.519h6.434zM354.856-180.163h24.963v-11.258h6.745v15.78h-31.708zM441.608-155.509h26.026v-22.198h6.736v26.72h-32.762z" style="fill:#231f20;fill-opacity:1;fill-rule:nonzero;stroke:none;stroke-width:3.14474" transform="matrix(1.33333 0 0 -1.33333 -215.747 219.072)"/><path d="M637.875-154.464h8.255v4.522h-23.083v-4.522h7.96c-.33-6.96-4.249-11.419-11.158-12.62.579-.576 2.808-2.774 3.296-3.27 4.544.216 9.006 3.748 11.302 7.628 2.296-3.88 6.755-7.412 11.286-7.629.491.497 2.708 2.695 3.312 3.27-6.906 1.202-10.834 5.661-11.17 12.62M379.816-172.963h6.746v24.749h-6.746zM419.053-160.17h-9.594v6.157h9.594zm12.007 0h-5.29v6.157h5.29v4.525h-33.592v-4.525h5.264v-6.157h-5.264v-4.526h33.592zM664.448-186.689v4.52h18.067v7.81h6.71v-7.81H707.3v-4.52zM183.243-187.831c-2.959 0-5.116 2.154-5.116 5.1 0 2.957 2.157 5.089 5.116 5.089 2.947 0 5.095-2.132 5.095-5.088 0-2.947-2.148-5.101-5.095-5.101m0 14.723c-6.975 0-11.843-3.965-11.843-9.622 0-5.67 4.868-9.623 11.843-9.623 6.966 0 11.828 3.953 11.828 9.623 0 5.657-4.862 9.622-11.828 9.622M645.57-187.831c-2.965 0-5.116 2.154-5.116 5.1 0 2.957 2.151 5.089 5.117 5.089 2.943 0 5.091-2.132 5.091-5.088 0-2.947-2.148-5.101-5.091-5.101m0 14.723c-6.978 0-11.85-3.965-11.85-9.622 0-5.67 4.872-9.623 11.85-9.623 6.962 0 11.827 3.953 11.827 9.623 0 5.657-4.865 9.622-11.827 9.622M274.187-161.076c4.007-5.155 10.202-7.903 16.513-7.95.478.575 2.639 3.21 3.104 3.77-9.214.356-15.884 5.27-15.884 11.736v5.306h-7.447v-5.306c0-6.465-6.676-11.38-15.88-11.736.45-.56 2.613-3.195 3.103-3.77 6.305.047 12.513 2.795 16.491 7.95M186.59-162.498h13.108v4.522h-24.53c-.817 0-1.204.35-1.204 1.148v8.613h-6.71v-10.83c0-2.217 1.289-3.453 3.575-3.453h9.038v-3.635H161.81v-4.523h42.853v4.523H186.59zM316.345-185.273v9.632h-6.72v-11.849c0-2.204 1.298-3.453 3.588-3.453h25.356v4.532h-21.02c-.83 0-1.204.34-1.204 1.138M741.958-148.215h6.708v-32.309h-6.708v3.346h-6.443v4.526h6.443zM726.542-185.273v6.522h-6.72v-8.739c0-2.204 1.289-3.453 3.584-3.453h25.705v4.532h-21.38c-.825 0-1.19.34-1.19 1.138M540.554-185.273v7.928h-6.73v-10.145c0-2.204 1.299-3.453 3.579-3.453h27.77v4.532h-23.43c-.837 0-1.19.34-1.19 1.138M223.815-180.156h15.805v-5.601c0-.793-.365-1.145-1.188-1.145h-13.425c-.812 0-1.192.352-1.192 1.145zm-6.72-7.818c0-2.214 1.292-3.447 3.597-3.447h22.057c2.296 0 3.595 1.233 3.595 3.447v12.333h-29.25zM539.972-154.513h18.088v-5.887c0-.786-.349-1.145-1.185-1.145h-15.712c-.817 0-1.191.359-1.191 1.145zm-6.72-8.107c0-2.192 1.292-3.438 3.587-3.438h24.363c2.286 0 3.582 1.246 3.582 3.438v12.616H533.25zM239.615-170.397v-2.566h6.714v24.75h-6.714v-17.658c-1.405-.699-4.77-.865-6.035-.865h-15.44c-.805 0-1.167.352-1.167 1.148v3.166h15.636v12.931h-22.375v-4.522h15.648v-3.89h-15.648v-9.896c0-2.217 1.292-3.456 3.588-3.456h19.758c1.265 0 4.63.163 6.035.858M677.086-161.098h18.054v-4.792c0-.787-.371-1.148-1.198-1.148H678.28c-.83 0-1.195.361-1.195 1.148zm-3.142-10.465h24.319c2.292 0 3.6 1.248 3.6 3.462v18.61h-6.723v-7.085h-18.054v7.085h-6.717v-18.61c0-2.214 1.28-3.462 3.575-3.462M167.163-200.266h1.71v-3.296l3.149 3.296h2.207l-3.346-3.305 3.513-4.714h-2.198l-2.51 3.503-.814-.814v-2.689h-1.71zM178.99-206.687c.242.327.374.773.374 1.374 0 .591-.132 1.05-.374 1.362-.246.32-.598.49-1.076.49-.45 0-.811-.17-1.07-.49-.241-.312-.367-.77-.367-1.362 0-.6.126-1.047.368-1.374.258-.321.62-.491 1.07-.491.477 0 .83.17 1.075.49m1.248-.852c-.506-.613-1.283-.927-2.324-.927-1.031 0-1.805.314-2.314.927-.51.607-.768 1.353-.768 2.217 0 .853.258 1.585.768 2.214.51.623 1.283.944 2.314.944 1.041 0 1.818-.321 2.324-.944.51-.629.767-1.361.767-2.214 0-.864-.257-1.61-.767-2.217M185.5-202.222c.006 0 .06 0 .123-.012v-1.573c-.097.003-.185.016-.26.02h-.19c-.632 0-1.05-.202-1.27-.605-.126-.232-.186-.578-.186-1.06v-2.833h-1.588v5.922h1.504v-1.022c.251.393.462.66.635.808.292.236.682.368 1.16.368.02 0 .044 0 .072-.013M188.115-203.834c-.223-.214-.364-.51-.418-.887h2.71c-.027.403-.163.701-.42.906-.249.207-.56.311-.938.311-.393 0-.71-.11-.934-.33m2.359 1.349a2.542 2.542 0 0 0 1.04-.88 2.86 2.86 0 0 0 .476-1.214c.037-.268.056-.658.05-1.164h-4.359c.016-.6.227-1 .62-1.248.236-.145.528-.217.862-.217.361 0 .644.088.861.273.132.094.24.223.33.403h1.595c-.032-.362-.224-.714-.57-1.066-.534-.58-1.295-.872-2.264-.872-.795 0-1.497.249-2.107.736-.607.478-.918 1.265-.918 2.359 0 1.028.27 1.802.827 2.352.544.538 1.255.815 2.148.815.525 0 .997-.098 1.409-.277M196.203-205.4a1.264 1.264 0 0 0-.308-.148 2.71 2.71 0 0 0-.406-.11l-.352-.06c-.324-.063-.566-.139-.698-.21-.255-.142-.365-.366-.365-.664 0-.27.072-.453.214-.579a.87.87 0 0 1 .534-.16c.343 0 .648.081.938.283.286.191.427.553.443 1.075zm-.95.732c.283.032.49.079.623.139.22.088.33.242.33.44 0 .242-.091.405-.251.503-.17.088-.419.132-.749.132-.374 0-.635-.088-.792-.27-.107-.142-.17-.312-.214-.548h-1.525c.028.516.179.947.434 1.277.424.519 1.135.786 2.15.786.661 0 1.243-.132 1.758-.386.513-.246.774-.73.774-1.44V-207.458c.019-.205.047-.34.104-.412.038-.076.126-.139.223-.18v-.235h-1.71a1.934 1.934 0 0 0-.095.34c-.022.11-.031.235-.047.364a3.31 3.31 0 0 0-.749-.597 2.353 2.353 0 0 0-1.15-.293c-.548 0-.994.16-1.35.462-.355.315-.528.746-.528 1.309 0 .73.28 1.26.85 1.594.314.17.773.296 1.38.374zM204.68-205.238h2.098l-1.034 3.142zm.117 4.972h1.93l2.885-8.019h-1.846l-.541 1.657h-3.004l-.56-1.657h-1.789zM214.04-206.592c.248.27.377.714.377 1.311 0 .56-.126.99-.368 1.277-.226.292-.544.447-.943.447-.55 0-.919-.265-1.136-.77a2.901 2.901 0 0 1-.157-1c0-.35.063-.664.17-.925.21-.504.588-.755 1.132-.755.371 0 .67.144.925.415m-.535 4.245c.384-.15.692-.44.928-.861v.846h1.569v-5.604c0-.765-.135-1.34-.393-1.733-.456-.664-1.318-.997-2.591-.997-.77 0-1.403.157-1.887.447-.478.305-.755.742-.812 1.336h1.717c.054-.185.123-.314.217-.387.167-.141.456-.217.853-.217.556 0 .934.186 1.12.557.119.242.191.632.191 1.201v.384c-.154-.255-.311-.45-.494-.57-.311-.232-.72-.352-1.21-.352-.768 0-1.397.268-1.853.805-.471.532-.695 1.246-.695 2.167 0 .874.224 1.613.67 2.214.444.594 1.066.903 1.887.903.302 0 .56-.048.783-.139M219.032-203.834c-.22-.214-.362-.51-.419-.887h2.72c-.03.403-.176.701-.424.906-.255.207-.563.311-.934.311-.415 0-.717-.11-.943-.33m2.37 1.349a2.537 2.537 0 0 0 1.032-.88c.242-.347.4-.752.478-1.214.038-.268.06-.658.05-1.164h-4.361c.025-.6.226-1 .62-1.248.238-.145.53-.217.86-.217.356 0 .642.088.866.273.122.094.226.223.327.403h1.604c-.044-.362-.24-.714-.579-1.066-.547-.58-1.293-.872-2.261-.872-.796 0-1.5.249-2.113.736-.604.478-.922 1.265-.922 2.359 0 1.028.277 1.802.83 2.352.554.538 1.274.815 2.148.815.516 0 .997-.098 1.422-.277M228.66-202.695c.395-.314.587-.858.587-1.594v-3.994H227.6v3.607c0 .318-.04.547-.116.717-.148.302-.44.456-.871.456-.528 0-.884-.22-1.072-.667a2.364 2.364 0 0 1-.154-.896v-3.217h-1.589v5.918h1.535v-.874c.198.318.39.528.576.664.32.232.72.364 1.23.364.619 0 1.122-.163 1.521-.484M234.32-204.458c-.021.227-.1.422-.216.591-.18.236-.453.365-.824.365-.535 0-.896-.255-1.095-.77-.1-.277-.157-.648-.157-1.117 0-.443.057-.798.157-1.063.199-.48.554-.726 1.057-.726.368 0 .629.1.79.286.154.205.242.447.286.752h1.597a2.538 2.538 0 0 0-.51-1.318c-.502-.682-1.229-1.01-2.191-1.01-.972 0-1.683.28-2.139.843-.456.554-.695 1.3-.695 2.199 0 1.028.265 1.814.777 2.374.503.56 1.201.843 2.095.843.757 0 1.383-.17 1.864-.5.485-.327.768-.915.856-1.749zM237.26-209.442l.2-.006c.161-.009.315 0 .466.019a.95.95 0 0 1 .365.129c.094.066.182.195.258.393.091.198.116.327.097.374l-2.22 6.17h1.767l1.318-4.361 1.24 4.361h1.685l-2.079-5.814c-.393-1.136-.717-1.83-.947-2.107-.239-.27-.713-.41-1.415-.41-.144 0-.26.007-.352.007-.082 0-.21.009-.384.016zM250.3-206.687c.235.327.367.773.367 1.374 0 .591-.132 1.05-.368 1.362-.258.32-.613.49-1.07.49-.461 0-.83-.17-1.068-.49-.258-.312-.375-.77-.375-1.362 0-.6.117-1.047.375-1.374.239-.321.607-.491 1.069-.491.456 0 .811.17 1.07.49m1.244-.852c-.509-.613-1.28-.927-2.314-.927-1.044 0-1.815.314-2.324.927-.516.607-.77 1.353-.77 2.217 0 .853.254 1.585.77 2.214.51.623 1.28.944 2.324.944 1.035 0 1.805-.321 2.314-.944.516-.629.777-1.361.777-2.214 0-.864-.26-1.61-.777-2.217M255.938-200.192a2.11 2.11 0 0 1 .327-.019v-1.251c-.088 0-.24 0-.44.006-.211.009-.359-.041-.428-.136a.457.457 0 0 1-.123-.324v-.503h1.003v-1.085h-1.003v-4.78h-1.579v4.78h-.855v1.085h.843v.384c0 .641.104 1.091.33 1.327.22.336.777.516 1.648.516zM266.545-201.688h-4.33v-1.707h3.978v-1.38h-3.978v-2.054h4.528v-1.456h-6.18v8.019h5.982zM271.552-206.684c.23.336.352.754.352 1.277 0 .732-.185 1.248-.547 1.56a1.24 1.24 0 0 1-.795.289c-.46 0-.793-.176-1.022-.516-.217-.343-.315-.774-.315-1.277 0-.563.098-.997.324-1.333.22-.324.554-.494.994-.494.443 0 .78.17 1.01.494m-.388 4.233a1.81 1.81 0 0 0 .695-.648v2.808h1.589v-7.994h-1.535v.82c-.223-.355-.478-.606-.767-.76-.277-.16-.642-.242-1.06-.242-.705 0-1.299.28-1.786.842-.478.554-.717 1.277-.717 2.16 0 1.014.232 1.806.71 2.385.478.581 1.107.87 1.9.87.368 0 .692-.084.971-.241M276.492-202.363v-3.55c0-.331.028-.586.116-.752.148-.296.428-.453.85-.453.54 0 .905.22 1.106.635.107.239.16.544.16.915v3.205h1.58v-5.922h-1.529v.855c-.012-.009-.05-.075-.104-.157a1.178 1.178 0 0 0-.22-.248c-.248-.214-.484-.365-.72-.45a2.712 2.712 0 0 0-.811-.116c-.9 0-1.503.311-1.818.956-.176.352-.264.852-.264 1.528v3.554zM285.429-204.458a1.256 1.256 0 0 1-.23.591c-.18.236-.45.365-.82.365-.529 0-.894-.255-1.086-.77-.11-.277-.154-.648-.154-1.117 0-.443.044-.798.154-1.063.183-.48.529-.726 1.05-.726.375 0 .633.1.774.286.17.205.258.447.29.752h1.604c-.029-.475-.208-.91-.513-1.318-.487-.682-1.223-1.01-2.195-1.01-.969 0-1.68.28-2.126.843-.462.554-.68 1.3-.68 2.199 0 1.028.243 1.814.75 2.374.509.56 1.213.843 2.11.843.751 0 1.367-.17 1.861-.5.475-.327.767-.915.852-1.749zM291.47-205.4a1.401 1.401 0 0 0-.29-.148 3.661 3.661 0 0 0-.424-.11l-.346-.06c-.324-.063-.573-.139-.714-.21a.73.73 0 0 1-.365-.664c0-.27.076-.453.233-.579.138-.11.32-.16.531-.16.346 0 .645.081.925.283.295.191.45.553.45 1.075zm-.953.732c.295.032.503.079.622.139.22.088.33.242.33.44 0 .242-.078.405-.251.503-.167.088-.415.132-.755.132-.361 0-.626-.088-.777-.27-.113-.142-.182-.312-.223-.548h-1.525c.028.516.18.947.44 1.277.418.519 1.132.786 2.145.786.657 0 1.239-.132 1.755-.386.519-.246.773-.73.773-1.44V-207.458c.02-.205.054-.34.1-.412a.522.522 0 0 1 .234-.18v-.235h-1.708c-.05.125-.075.236-.11.34-.019.11-.028.235-.035.364a2.904 2.904 0 0 0-.751-.597 2.329 2.329 0 0 0-1.145-.293c-.557 0-1.003.16-1.358.462-.356.315-.532.746-.532 1.309 0 .73.283 1.26.85 1.594.314.17.776.296 1.39.374zM293.828-203.503v1.085h.84v1.667h1.59v-1.667h.976v-1.085h-.975v-3.126c0-.245.025-.393.085-.452.069-.063.264-.098.578-.098.05 0 .104 0 .155.01a.76.76 0 0 1 .157.021v-1.167l-.758-.04c-.742-.032-1.258.103-1.535.386-.179.183-.273.453-.273.821v3.645zM298.239-202.363h1.594v-5.922h-1.594zm1.594.71h-1.594v1.428h1.594zM305.168-206.687c.258.327.38.773.38 1.374 0 .591-.122 1.05-.38 1.362-.236.32-.6.49-1.063.49-.46 0-.814-.17-1.07-.49-.25-.312-.38-.77-.38-1.362 0-.6.13-1.047.38-1.374.256-.321.61-.491 1.07-.491.462 0 .827.17 1.063.49m1.258-.852c-.516-.613-1.283-.927-2.33-.927-1.032 0-1.812.314-2.321.927-.503.607-.768 1.353-.768 2.217 0 .853.265 1.585.768 2.214.51.623 1.29.944 2.32.944 1.048 0 1.815-.321 2.33-.944.513-.629.768-1.361.768-2.214 0-.864-.255-1.61-.767-2.217M313.188-202.695c.396-.314.591-.858.591-1.594v-3.994h-1.641v3.607c0 .318-.038.547-.126.717-.148.302-.44.456-.862.456-.534 0-.887-.22-1.078-.667-.101-.236-.151-.537-.151-.896v-3.217h-1.588v5.918h1.531v-.874c.198.318.393.528.566.664.327.232.74.364 1.236.364.62 0 1.126-.163 1.522-.484M315.176-209.574c.309.085.541.242.699.447.147.2.239.484.251.842h-.95v1.642h1.702v-1.421c0-.246-.032-.504-.107-.765a1.49 1.49 0 0 0-.371-.698 1.814 1.814 0 0 0-.683-.48c-.264-.111-.446-.158-.54-.158zM325.865-201.915c-.214.182-.525.261-.912.261h-1.519v-2.358h1.52c.386 0 .697.097.911.295.217.189.318.49.318.909 0 .409-.1.714-.318.893m1.305-2.896c-.475-.387-1.15-.588-2.04-.588h-1.696v-2.884h-1.707v8.016h3.506c.811 0 1.45-.208 1.937-.613.472-.422.71-1.057.71-1.928 0-.947-.238-1.61-.71-2.003M332.492-202.222c.02 0 .066 0 .132-.012v-1.573c-.094.003-.182.016-.26.02h-.192c-.639 0-1.057-.202-1.274-.605-.12-.232-.182-.578-.182-1.06v-2.833h-1.589v5.922h1.51v-1.022c.248.393.459.66.632.808.292.236.682.368 1.157.368.022 0 .05 0 .066-.013M337.345-206.687c.245.327.368.773.368 1.374 0 .591-.123 1.05-.368 1.362-.246.32-.607.49-1.066.49-.463 0-.827-.17-1.085-.49-.233-.312-.362-.77-.362-1.362 0-.6.129-1.047.362-1.374.258-.321.622-.491 1.085-.491.459 0 .82.17 1.066.49m1.248-.852c-.51-.613-1.286-.927-2.314-.927-1.044 0-1.821.314-2.321.927-.507.607-.764 1.353-.764 2.217 0 .853.257 1.585.764 2.214.5.623 1.277.944 2.32.944 1.029 0 1.806-.321 2.315-.944.51-.629.761-1.361.761-2.214 0-.864-.251-1.61-.76-2.217M348.084-202.366c.268-.098.507-.27.714-.541a1.6 1.6 0 0 0 .346-.752c.038-.207.054-.487.054-.874l-.01-3.752h-1.628v3.79c0 .233-.032.412-.11.56-.142.276-.416.415-.79.415-.446 0-.758-.18-.918-.538a1.654 1.654 0 0 1-.138-.68v-3.547h-1.589v3.548c0 .349-.037.607-.097.764-.142.283-.403.428-.802.428-.456 0-.748-.145-.915-.428-.094-.167-.126-.406-.126-.72v-3.592h-1.585v5.922h1.528v-.862c.192.315.375.532.554.66.299.243.701.356 1.192.356.465 0 .84-.097 1.12-.302.229-.182.408-.415.518-.714.22.352.472.61.786.774.327.157.699.242 1.101.242.27 0 .528-.053.796-.157M354.377-206.687c.248.327.374.773.374 1.374 0 .591-.126 1.05-.374 1.362-.255.32-.604.49-1.07.49-.465 0-.82-.17-1.072-.49-.248-.312-.377-.77-.377-1.362 0-.6.129-1.047.377-1.374.252-.321.607-.491 1.072-.491.466 0 .815.17 1.07.49m1.245-.852c-.5-.613-1.286-.927-2.315-.927-1.044 0-1.817.314-2.33.927-.506.607-.755 1.353-.755 2.217 0 .853.249 1.585.755 2.214.513.623 1.286.944 2.33.944 1.029 0 1.815-.321 2.315-.944.506-.629.767-1.361.767-2.214 0-.864-.26-1.61-.767-2.217M356.904-203.503v1.085h.84v1.667h1.59v-1.667h.976v-1.085h-.975v-3.126c0-.245.025-.393.091-.452.07-.063.255-.098.572-.098.054 0 .095 0 .155.01.056 0 .094.012.157.021v-1.167l-.761-.04c-.749-.032-1.264.103-1.538.386-.173.183-.267.453-.267.821v3.645zM361.316-202.363h1.582v-5.922h-1.582zm1.582.71h-1.582v1.428h1.582zM368.25-206.687c.242.327.365.773.365 1.374 0 .591-.123 1.05-.365 1.362-.251.32-.604.49-1.078.49-.456 0-.818-.17-1.063-.49-.242-.312-.378-.77-.378-1.362 0-.6.136-1.047.378-1.374.245-.321.607-.491 1.063-.491.474 0 .827.17 1.078.49m1.242-.852c-.503-.613-1.283-.927-2.32-.927-1.035 0-1.809.314-2.318.927-.51.607-.767 1.353-.767 2.217 0 .853.257 1.585.767 2.214.51.623 1.283.944 2.318.944 1.037 0 1.817-.321 2.32-.944.52-.629.768-1.361.768-2.214 0-.864-.249-1.61-.768-2.217M376.264-202.695c.393-.314.582-.858.582-1.594v-3.994h-1.642v3.607c0 .318-.034.547-.122.717-.151.302-.44.456-.862.456-.528 0-.887-.22-1.082-.667-.097-.236-.148-.537-.148-.896v-3.217H371.4v5.918h1.538v-.874c.192.318.393.528.572.664.327.232.73.364 1.223.364.626 0 1.13-.163 1.532-.484M384.814-205.4a1.259 1.259 0 0 0-.3-.148 3.354 3.354 0 0 0-.417-.11l-.35-.06c-.317-.063-.569-.139-.704-.21-.245-.142-.365-.366-.365-.664 0-.27.073-.453.23-.579.141-.11.33-.16.528-.16.343 0 .657.081.94.283.28.191.428.553.438 1.075zm-.956.732c.289.032.496.079.629.139.223.088.336.242.336.44 0 .242-.085.405-.258.503-.173.088-.424.132-.748.132-.375 0-.639-.088-.783-.27a1.25 1.25 0 0 1-.224-.548h-1.528c.035.516.186.947.44 1.277.422.519 1.136.786 2.154.786.658 0 1.243-.132 1.758-.386.51-.246.761-.73.761-1.44v-2.73c0-.186 0-.415.01-.692.008-.205.047-.34.097-.412a.465.465 0 0 1 .23-.18v-.235h-1.714c-.044.125-.07.236-.098.34-.013.11-.035.235-.04.364a3.103 3.103 0 0 0-.759-.597 2.27 2.27 0 0 0-1.138-.293c-.55 0-1 .16-1.359.462-.352.315-.537.746-.537 1.309 0 .73.286 1.26.864 1.594.305.17.774.296 1.378.374zM392.659-202.695c.4-.314.6-.858.6-1.594v-3.994h-1.644v3.607c0 .318-.044.547-.13.717-.144.302-.44.456-.86.456-.523 0-.881-.22-1.08-.667-.103-.236-.154-.537-.154-.896v-3.217h-1.581v5.918h1.531v-.874c.195.318.393.528.572.664.324.232.74.364 1.23.364.616 0 1.123-.163 1.516-.484M398.348-206.684c.22.336.327.754.327 1.277 0 .732-.18 1.248-.54 1.56-.23.191-.498.289-.79.289-.466 0-.799-.176-1.02-.516-.21-.343-.323-.774-.323-1.277 0-.563.113-.997.333-1.333.22-.324.544-.494.988-.494.446 0 .776.17 1.025.494m-.39 4.233c.286-.158.5-.365.682-.648v2.808h1.588v-7.994h-1.531v.82c-.217-.355-.478-.606-.767-.76-.293-.16-.642-.242-1.07-.242-.7 0-1.301.28-1.78.842-.477.554-.723 1.277-.723 2.16 0 1.014.246 1.806.714 2.385.481.581 1.113.87 1.909.87.374 0 .689-.084.978-.241M406.493-208.285h-1.695v8.02h1.695zM412.843-202.695c.4-.314.588-.858.588-1.594v-3.994h-1.635v3.607c0 .318-.041.547-.12.717-.16.302-.45.456-.88.456-.516 0-.878-.22-1.07-.667-.106-.236-.15-.537-.15-.896v-3.217h-1.592v5.918h1.538v-.874c.195.318.384.528.579.664.317.232.72.364 1.223.364.623 0 1.129-.163 1.519-.484M417.41-200.192c.078-.013.188-.019.317-.019v-1.251c-.081 0-.226 0-.45.006-.2.009-.342-.041-.42-.136a.502.502 0 0 1-.108-.324v-.503h1.004v-1.085h-1.004v-4.78h-1.578v4.78h-.859v1.085h.84v.384c0 .641.11 1.091.333 1.327.22.336.768.516 1.657.516zM422.48-206.687c.252.327.387.773.387 1.374 0 .591-.135 1.05-.387 1.362-.248.32-.6.49-1.063.49-.472 0-.82-.17-1.079-.49-.245-.312-.367-.77-.367-1.362 0-.6.122-1.047.367-1.374.258-.321.607-.491 1.08-.491.461 0 .814.17 1.062.49m1.252-.852c-.516-.613-1.29-.927-2.321-.927-1.044 0-1.812.314-2.33.927-.507.607-.755 1.353-.755 2.217 0 .853.248 1.585.755 2.214.518.623 1.286.944 2.33.944 1.031 0 1.805-.321 2.32-.944.51-.629.762-1.361.762-2.214 0-.864-.252-1.61-.761-2.217M428.978-202.222c.022 0 .066 0 .136-.012v-1.573c-.098.003-.18.016-.261.02h-.186c-.635 0-1.06-.202-1.274-.605-.125-.232-.185-.578-.185-1.06v-2.833h-1.579v5.922h1.5v-1.022c.245.393.462.66.632.808.3.236.686.368 1.145.368.035 0 .063 0 .072-.013M437.635-202.366c.265-.098.504-.27.724-.541.16-.198.29-.453.349-.752a6.7 6.7 0 0 0 .044-.874l-.006-3.752h-1.626v3.79c0 .233-.05.412-.123.56-.138.276-.402.415-.783.415-.446 0-.751-.18-.93-.538a1.77 1.77 0 0 1-.123-.68v-3.547h-1.582v3.548c0 .349-.038.607-.113.764-.139.283-.403.428-.793.428-.453 0-.767-.145-.908-.428-.092-.167-.145-.406-.145-.72v-3.592h-1.582v5.922h1.532v-.862c.198.315.386.532.553.66.308.243.71.356 1.201.356.45 0 .834-.097 1.117-.302.23-.182.402-.415.519-.714.213.352.474.61.789.774.32.157.692.242 1.1.242.271 0 .532-.053.787-.157M443.475-205.4c-.1-.067-.204-.11-.298-.148a2.89 2.89 0 0 0-.416-.11l-.349-.06c-.33-.063-.566-.139-.707-.21-.246-.142-.368-.366-.368-.664 0-.27.078-.453.226-.579a.872.872 0 0 1 .538-.16c.333 0 .642.081.934.283.28.191.428.553.44 1.075zm-.953.732c.293.032.494.079.63.139.216.088.323.242.323.44 0 .242-.078.405-.248.503-.17.088-.422.132-.749.132-.368 0-.632-.088-.792-.27a1.328 1.328 0 0 1-.214-.548h-1.531c.031.516.185.947.44 1.277.421.519 1.132.786 2.148.786.666 0 1.251-.132 1.764-.386.503-.246.767-.73.767-1.44v-2.73c0-.186 0-.415.013-.692.003-.205.031-.34.085-.412a.483.483 0 0 1 .236-.18v-.235h-1.711a1.395 1.395 0 0 0-.1.34c-.023.11-.032.235-.054.364a2.71 2.71 0 0 0-.742-.597 2.326 2.326 0 0 0-1.151-.293c-.544 0-.985.16-1.35.462-.345.315-.537.746-.537 1.309 0 .73.286 1.26.858 1.594.312.17.768.296 1.38.374zM445.837-203.503v1.085h.842v1.667h1.589v-1.667h.98v-1.085h-.98v-3.126c0-.245.034-.393.088-.452.06-.063.26-.098.578-.098.047 0 .1 0 .142.01.063 0 .104.012.173.021v-1.167l-.764-.04c-.752-.032-1.268.103-1.529.386-.185.183-.277.453-.277.821v3.645zM450.252-202.363h1.585v-5.922h-1.585zm1.588.71h-1.585v1.428h1.585zM457.183-206.687c.251.327.367.773.367 1.374 0 .591-.116 1.05-.367 1.362-.246.32-.607.49-1.067.49-.474 0-.827-.17-1.075-.49-.252-.312-.377-.77-.377-1.362 0-.6.125-1.047.377-1.374.248-.321.6-.491 1.075-.491.46 0 .821.17 1.067.49m1.245-.852c-.51-.613-1.277-.927-2.318-.927-1.038 0-1.814.314-2.33.927-.503.607-.755 1.353-.755 2.217 0 .853.252 1.585.755 2.214.516.623 1.292.944 2.33.944 1.041 0 1.808-.321 2.318-.944.506-.629.764-1.361.764-2.214 0-.864-.258-1.61-.764-2.217M465.19-202.695c.393-.314.601-.858.601-1.594v-3.994h-1.645v3.607c0 .318-.04.547-.132.717-.138.302-.43.456-.861.456-.52 0-.881-.22-1.07-.667-.103-.236-.154-.537-.154-.896v-3.217h-1.582v5.918h1.529v-.874c.185.318.393.528.569.664.324.232.726.364 1.223.364.632 0 1.136-.163 1.522-.484M471.785-205.806c.057-.368.164-.635.315-.82.274-.325.745-.491 1.434-.491.412 0 .742.047.994.125.478.17.723.488.723.934 0 .258-.123.46-.365.604-.239.151-.61.28-1.126.387l-.87.182c-.85.192-1.45.4-1.777.623-.56.371-.837.947-.837 1.733 0 .726.27 1.318.802 1.799.547.465 1.33.707 2.368.707.865 0 1.594-.22 2.208-.67.619-.45.946-1.097.968-1.943h-1.638c-.035.478-.258.83-.639 1.019-.28.141-.616.207-1.015.207-.447 0-.802-.088-1.067-.264a.817.817 0 0 1-.402-.732c0-.29.135-.5.4-.645.163-.088.521-.195 1.078-.33l1.415-.337c.62-.148 1.098-.33 1.403-.572.49-.378.732-.925.732-1.639 0-.735-.28-1.346-.858-1.83-.582-.478-1.384-.723-2.437-.723-1.076 0-1.912.233-2.529.717-.603.475-.921 1.132-.921 1.96zM479.554-203.834c-.227-.214-.362-.51-.419-.887h2.711c-.034.403-.176.701-.415.906a1.46 1.46 0 0 1-.94.311c-.403 0-.717-.11-.937-.33m2.361 1.349a2.487 2.487 0 0 0 1.035-.88 2.74 2.74 0 0 0 .472-1.214c.044-.268.069-.658.05-1.164h-4.359c.032-.6.236-1 .623-1.248.245-.145.528-.217.862-.217.361 0 .65.088.864.273.13.094.236.223.33.403h1.595c-.035-.362-.23-.714-.579-1.066-.531-.58-1.289-.872-2.258-.872-.789 0-1.5.249-2.106.736-.617.478-.916 1.265-.916 2.359 0 1.028.265 1.802.827 2.352.548.538 1.261.815 2.142.815.522 0 .987-.098 1.418-.277M487.672-202.222c.01 0 .06 0 .129-.012v-1.573c-.097.003-.195.016-.261.02h-.198c-.638 0-1.06-.202-1.267-.605-.126-.232-.183-.578-.183-1.06v-2.833h-1.597v5.922h1.525v-1.022c.23.393.43.66.622.808.296.236.683.368 1.145.368.028 0 .044 0 .085-.013M492.456-202.363h1.696l-2.18-5.922h-1.654l-2.186 5.922h1.78l1.261-4.362zM495.058-202.363h1.585v-5.922h-1.585zm1.585.71h-1.585v1.428h1.585zM501.805-204.458a1.592 1.592 0 0 1-.23.591c-.188.236-.45.365-.824.365-.537 0-.893-.255-1.088-.77-.107-.277-.15-.648-.15-1.117 0-.443.043-.798.15-1.063.183-.48.535-.726 1.054-.726.368 0 .629.1.786.286.154.205.242.447.28.752h1.6c-.03-.475-.207-.91-.515-1.318-.49-.682-1.22-1.01-2.192-1.01-.962 0-1.673.28-2.126.843-.462.554-.68 1.3-.68 2.199 0 1.028.246 1.814.75 2.374.512.56 1.216.843 2.103.843.755 0 1.377-.17 1.868-.5.478-.327.761-.915.852-1.749zM506.07-203.834c-.224-.214-.366-.51-.425-.887h2.723c-.035.403-.18.701-.421.906-.261.207-.57.311-.934.311-.41 0-.724-.11-.944-.33m2.356 1.349c.424-.192.77-.478 1.04-.88a2.86 2.86 0 0 0 .475-1.214c.041-.268.07-.658.05-1.164h-4.364c.034-.6.239-1 .626-1.248.248-.145.537-.217.861-.217.365 0 .654.088.862.273.135.094.242.223.333.403h1.61c-.047-.362-.242-.714-.581-1.066-.545-.58-1.29-.872-2.258-.872a3.28 3.28 0 0 0-2.12.736c-.613.478-.912 1.265-.912 2.359 0 1.028.264 1.802.83 2.352.544.538 1.264.815 2.136.815.525 0 .996-.098 1.412-.277M513.993-202.363h1.579v-5.922h-1.58zm1.579.71h-1.58v1.428h1.58zM521.995-202.695c.403-.314.598-.858.598-1.594v-3.994h-1.645v3.607c0 .318-.05.547-.122.717-.155.302-.444.456-.865.456-.52 0-.88-.22-1.076-.667-.104-.236-.154-.537-.154-.896v-3.217h-1.585v5.918h1.52v-.874c.21.318.395.528.58.664.331.232.734.364 1.23.364.617 0 1.13-.163 1.52-.484M527.325-200.266h5.808v-1.387h-4.1v-1.868h3.594v-1.39h-3.594v-3.374h-1.708zM537.946-206.687c.246.327.375.773.375 1.374 0 .591-.13 1.05-.375 1.362-.251.32-.603.49-1.066.49-.462 0-.814-.17-1.085-.49-.239-.312-.364-.77-.364-1.362 0-.6.125-1.047.364-1.374.27-.321.623-.491 1.085-.491.463 0 .815.17 1.066.49m1.255-.852c-.519-.613-1.283-.927-2.33-.927-1.038 0-1.799.314-2.318.927-.512.607-.764 1.353-.764 2.217 0 .853.252 1.585.764 2.214.52.623 1.28.944 2.318.944 1.047 0 1.811-.321 2.33-.944.503-.629.755-1.361.755-2.214 0-.864-.252-1.61-.755-2.217M544.878-206.687c.242.327.37.773.37 1.374 0 .591-.128 1.05-.37 1.362-.249.32-.6.49-1.063.49-.469 0-.83-.17-1.07-.49-.251-.312-.377-.77-.377-1.362 0-.6.126-1.047.378-1.374.239-.321.6-.491 1.069-.491.462 0 .814.17 1.063.49m1.254-.852c-.509-.613-1.28-.927-2.327-.927-1.031 0-1.811.314-2.308.927-.519.607-.78 1.353-.78 2.217 0 .853.261 1.585.78 2.214.497.623 1.277.944 2.308.944 1.048 0 1.818-.321 2.328-.944.512-.629.767-1.361.767-2.214 0-.864-.255-1.61-.768-2.217M551.634-206.684c.23.336.349.754.349 1.277 0 .732-.198 1.248-.563 1.56-.22.191-.49.289-.786.289-.46 0-.796-.176-1.013-.516-.207-.343-.314-.774-.314-1.277 0-.563.107-.997.314-1.333.23-.324.554-.494 1.007-.494.43 0 .767.17 1.006.494m-.39 4.233c.283-.158.522-.365.698-.648v2.808h1.588v-7.994h-1.538v.82c-.22-.355-.478-.606-.767-.76-.29-.16-.648-.242-1.072-.242-.698 0-1.299.28-1.77.842-.485.554-.73 1.277-.73 2.16 0 1.014.245 1.806.72 2.385.475.581 1.11.87 1.9.87.36 0 .694-.084.971-.241M554.88-209.574c.311.085.557.242.704.447.145.2.233.484.258.842h-.962v1.642h1.708v-1.421a3 3 0 0 0-.107-.765 1.509 1.509 0 0 0-.365-.698 1.898 1.898 0 0 0-.692-.48c-.264-.111-.447-.158-.544-.158zM563.617-205.238h2.092l-1.032 3.142zm.107 4.972h1.944l2.88-8.019h-1.855l-.541 1.657h-3l-.554-1.657h-1.783zM572.974-206.592c.243.27.375.714.375 1.311 0 .56-.126.99-.359 1.277a1.175 1.175 0 0 1-.953.447c-.547 0-.927-.265-1.126-.77-.106-.274-.16-.608-.16-1 0-.35.054-.664.17-.925.207-.504.579-.755 1.126-.755.365 0 .67.144.927.415m-.547 4.245c.393-.15.705-.44.934-.861v.846h1.573v-5.604c0-.765-.136-1.34-.397-1.733-.452-.664-1.314-.997-2.585-.997-.773 0-1.405.157-1.886.447-.494.305-.761.742-.812 1.336h1.72c.041-.185.11-.314.211-.387.164-.141.45-.217.852-.217.55 0 .937.186 1.123.557.123.242.189.632.189 1.201v.384c-.154-.255-.318-.45-.485-.57-.314-.232-.726-.352-1.226-.352-.767 0-1.377.268-1.843.805-.453.532-.685 1.246-.685 2.167 0 .874.22 1.613.654 2.214.443.594 1.075.903 1.89.903.298 0 .563-.048.773-.139M579.759-202.222c.025 0 .072 0 .132-.012v-1.573c-.085.003-.183.016-.255.02h-.195c-.632 0-1.06-.202-1.274-.605-.122-.232-.179-.578-.179-1.06v-2.833h-1.585v5.922h1.503v-1.022c.242.393.466.66.632.808.3.236.683.368 1.16.368.01 0 .042 0 .06-.013M580.834-202.363h1.589v-5.922h-1.589zm1.589.71h-1.589v1.428h1.589zM587.583-204.458a1.198 1.198 0 0 1-.232.591c-.167.236-.444.365-.818.365-.528 0-.896-.255-1.088-.77-.107-.277-.157-.648-.157-1.117 0-.443.05-.798.157-1.063.192-.48.54-.726 1.057-.726.364 0 .622.1.786.286.148.205.242.447.276.752h1.604a2.425 2.425 0 0 0-.519-1.318c-.487-.682-1.223-1.01-2.179-1.01-.972 0-1.682.28-2.141.843-.456.554-.683 1.3-.683 2.199 0 1.028.252 1.814.767 2.374.504.56 1.192.843 2.089.843.764 0 1.393-.17 1.868-.5.478-.327.764-.915.855-1.749zM591.89-202.363v-3.55c0-.331.05-.586.119-.752.144-.296.427-.453.849-.453.547 0 .918.22 1.113.635.11.239.16.544.16.915v3.205h1.592v-5.922h-1.529v.855c-.025-.009-.053-.075-.126-.157a1.277 1.277 0 0 0-.198-.248c-.254-.214-.487-.365-.73-.45a2.697 2.697 0 0 0-.81-.116c-.9 0-1.504.311-1.818.956-.176.352-.261.852-.261 1.528v3.554zM598.822-208.285h-1.59v7.994h1.59zM599.757-203.503v1.085h.849v1.667h1.582v-1.667h.984v-1.085h-.984v-3.126c0-.245.04-.393.1-.452.057-.063.255-.098.567-.098.056 0 .1 0 .154.01.05 0 .1.012.163.021v-1.167l-.758-.04c-.758-.032-1.264.103-1.544.386-.185.183-.264.453-.264.821v3.645zM605.764-202.363v-3.55c0-.331.035-.586.123-.752.144-.296.421-.453.852-.453.535 0 .906.22 1.1.635.11.239.164.544.164.915v3.205h1.588v-5.922h-1.534v.855c-.013-.009-.054-.075-.107-.157a.885.885 0 0 0-.227-.248c-.245-.214-.475-.365-.71-.45a2.787 2.787 0 0 0-.818-.116c-.893 0-1.513.311-1.808.956-.18.352-.261.852-.261 1.528v3.554zM614.443-202.222c.031 0 .075 0 .145-.012v-1.573c-.092.003-.19.016-.258.02h-.195c-.63 0-1.06-.202-1.277-.605-.116-.232-.18-.578-.18-1.06v-2.833h-1.581v5.922h1.5v-1.022c.245.393.462.66.635.808.299.236.683.368 1.145.368.034 0 .066 0 .066-.013M617.078-203.834c-.214-.214-.365-.51-.422-.887h2.718c-.026.403-.164.701-.419.906-.251.207-.569.311-.927.311-.422 0-.727-.11-.95-.33m2.371 1.349a2.578 2.578 0 0 0 1.031-.88 2.86 2.86 0 0 0 .475-1.214c.041-.268.063-.658.05-1.164h-4.364c.015-.6.239-1 .622-1.248.252-.145.535-.217.871-.217.343 0 .636.088.868.273.117.094.227.223.315.403h1.607c-.047-.362-.233-.714-.579-1.066-.538-.58-1.292-.872-2.26-.872-.8 0-1.504.249-2.12.736-.607.478-.916 1.265-.916 2.359 0 1.028.274 1.802.828 2.352.553.538 1.276.815 2.15.815.526 0 .997-.098 1.422-.277M621.752-209.574c.311.085.547.242.707.447.142.2.22.484.246.842h-.953v1.642h1.704v-1.421c0-.246-.04-.504-.107-.765a1.401 1.401 0 0 0-.364-.698 1.872 1.872 0 0 0-.692-.48c-.261-.111-.447-.158-.541-.158zM628.25-200.266h5.815v-1.387h-4.114v-1.868h3.601v-1.39h-3.6v-3.374h-1.702zM638.873-206.687c.239.327.37.773.37 1.374 0 .591-.131 1.05-.37 1.362-.255.32-.617.49-1.073.49-.465 0-.823-.17-1.075-.49-.248-.312-.374-.77-.374-1.362 0-.6.126-1.047.374-1.374.252-.321.61-.491 1.075-.491.456 0 .818.17 1.073.49m1.245-.852c-.519-.613-1.292-.927-2.33-.927-1.032 0-1.808.314-2.32.927-.507.607-.759 1.353-.759 2.217 0 .853.252 1.585.758 2.214.513.623 1.29.944 2.32.944 1.039 0 1.812-.321 2.331-.944.51-.629.767-1.361.767-2.214 0-.864-.257-1.61-.767-2.217M645.359-202.222c.022 0 .072 0 .144-.012v-1.573c-.094.003-.194.016-.251.02h-.192c-.645 0-1.075-.202-1.29-.605-.122-.232-.178-.578-.178-1.06v-2.833h-1.582v5.922h1.506v-1.022c.252.393.465.66.629.808.302.236.686.368 1.138.368.035 0 .063 0 .076-.013M647.994-203.834c-.223-.214-.365-.51-.425-.887h2.717c-.022.403-.166.701-.424.906-.245.207-.563.311-.931.311-.406 0-.726-.11-.937-.33m2.362 1.349a2.47 2.47 0 0 0 1.028-.88c.248-.347.409-.752.481-1.214.04-.268.063-.658.057-1.164h-4.372c.02-.6.236-1 .633-1.248.235-.145.528-.217.861-.217.35 0 .639.088.871.273.113.094.224.223.318.403h1.607c-.047-.362-.236-.714-.582-1.066-.55-.58-1.292-.872-2.261-.872-.799 0-1.506.249-2.123.736-.604.478-.915 1.265-.915 2.359 0 1.028.28 1.802.834 2.352.56.538 1.267.815 2.15.815.516 0 .985-.098 1.413-.277M653.961-206.362c.038-.27.104-.478.214-.591.207-.217.569-.315 1.12-.315.304 0 .553.05.738.136.189.085.277.232.277.408 0 .177-.075.3-.217.403-.148.082-.704.233-1.663.45-.686.176-1.177.377-1.447.632-.27.232-.415.588-.415 1.047 0 .547.22 1.006.663 1.393.431.387 1.057.588 1.853.588.745 0 1.364-.145 1.842-.446.475-.293.749-.8.812-1.52h-1.573a.918.918 0 0 1-.179.472c-.173.205-.462.309-.877.309-.343 0-.588-.048-.736-.158-.142-.1-.21-.223-.21-.361 0-.173.068-.3.223-.393.15-.073.698-.214 1.647-.416.636-.135 1.092-.358 1.412-.654.293-.286.46-.66.46-1.103 0-.592-.23-1.057-.68-1.425-.446-.377-1.132-.563-2.06-.563-.95 0-1.657.201-2.11.591-.453.403-.685.893-.685 1.516zM658.438-203.503v1.085h.837v1.667h1.594v-1.667h.969v-1.085h-.969v-3.126c0-.245.026-.393.098-.452.05-.063.248-.098.572-.098.044 0 .091 0 .148.01.066 0 .1.012.15.021v-1.167l-.744-.04c-.755-.032-1.27.103-1.538.386-.183.183-.28.453-.28.821v3.645zM666.193-202.222c.022 0 .069 0 .141-.012v-1.573c-.094.003-.192.016-.267.02h-.182c-.636 0-1.07-.202-1.28-.605-.123-.232-.189-.578-.189-1.06v-2.833h-1.579v5.922h1.497v-1.022c.252.393.456.66.651.808.293.236.664.368 1.142.368.025 0 .05 0 .066-.013M667.486-209.442l.201-.006c.16-.009.315 0 .453.019a.805.805 0 0 1 .362.129c.097.066.191.195.276.393.079.198.107.327.092.374l-2.227 6.17h1.77l1.321-4.361 1.246 4.361h1.673l-2.066-5.814c-.406-1.136-.727-1.83-.953-2.107-.24-.27-.708-.41-1.422-.41-.141 0-.26.007-.346.007-.078 0-.207.009-.38.016zM680.062-205.4a1.171 1.171 0 0 0-.302-.148 3.14 3.14 0 0 0-.415-.11l-.353-.06c-.32-.063-.556-.139-.698-.21-.251-.142-.368-.366-.368-.664 0-.27.073-.453.22-.579a.885.885 0 0 1 .538-.16c.343 0 .651.081.928.283.29.191.434.553.45 1.075zm-.963.732c.293.032.504.079.636.139.22.088.336.242.336.44 0 .242-.097.405-.26.503-.174.088-.422.132-.752.132-.365 0-.623-.088-.777-.27a1.119 1.119 0 0 1-.227-.548h-1.522c.035.516.189.947.444 1.277.405.519 1.126.786 2.148.786.657 0 1.242-.132 1.754-.386.507-.246.764-.73.764-1.44v-2.73c0-.186 0-.415.013-.692.013-.205.038-.34.094-.412a.448.448 0 0 1 .224-.18v-.235h-1.711a1.472 1.472 0 0 0-.088.34c-.02.11-.044.235-.054.364a2.927 2.927 0 0 0-.745-.597 2.37 2.37 0 0 0-1.151-.293c-.55 0-.994.16-1.343.462-.368.315-.538.746-.538 1.309 0 .73.277 1.26.853 1.594.317.17.77.296 1.377.374zM687.908-202.695c.396-.314.594-.858.594-1.594v-3.994h-1.638v3.607c0 .318-.044.547-.123.717-.157.302-.45.456-.87.456-.523 0-.881-.22-1.076-.667-.104-.236-.154-.537-.154-.896v-3.217h-1.588v5.918h1.528v-.874c.208.318.39.528.579.664.324.232.732.364 1.23.364.616 0 1.125-.163 1.518-.484M693.583-206.684c.227.336.337.754.337 1.277 0 .732-.17 1.248-.544 1.56-.227.191-.494.289-.786.289-.469 0-.8-.176-1.013-.516-.217-.343-.33-.774-.33-1.277 0-.563.113-.997.33-1.333.227-.324.544-.494 1-.494.44 0 .78.17 1.006.494m-.383 4.233c.286-.158.512-.365.685-.648v2.808h1.585v-7.994h-1.528v.82c-.217-.355-.478-.606-.767-.76-.293-.16-.648-.242-1.073-.242-.704 0-1.299.28-1.773.842-.482.554-.717 1.277-.717 2.16 0 1.014.235 1.806.71 2.385.466.581 1.107.87 1.903.87a2 2 0 0 0 .975-.241M700.18-200.266h5.805v-1.387h-4.11v-1.868h3.594v-1.39h-3.594v-3.374h-1.695zM707.017-202.363h1.582v-5.922h-1.582zm1.582.71h-1.582v1.428h1.582zM711.37-206.362c.042-.27.108-.478.22-.591.199-.217.564-.315 1.108-.315.32 0 .56.05.745.136.189.085.286.232.286.408 0 .177-.072.3-.226.403-.154.082-.708.233-1.667.45-.682.176-1.167.377-1.437.632-.283.232-.425.588-.425 1.047 0 .547.227 1.006.664 1.393.443.387 1.063.588 1.85.588.754 0 1.383-.145 1.845-.446.478-.293.761-.8.827-1.52h-1.588a1.008 1.008 0 0 1-.167.472c-.17.205-.474.309-.896.309-.336 0-.579-.048-.726-.158-.148-.1-.214-.223-.214-.361 0-.173.066-.3.226-.393.151-.073.705-.214 1.648-.416.632-.135 1.1-.358 1.412-.654.305-.286.46-.66.46-1.103 0-.592-.22-1.057-.674-1.425-.437-.377-1.129-.563-2.06-.563-.956 0-1.66.201-2.116.591-.456.403-.667.893-.667 1.516zM720.824-202.406c.305-.123.556-.32.748-.576.17-.22.264-.446.311-.676.038-.245.044-.616.044-1.148v-3.478h-1.6v3.592c0 .32-.05.581-.164.78-.145.27-.421.408-.818.408-.42 0-.735-.138-.95-.408-.22-.277-.317-.664-.317-1.17v-3.202h-1.597v7.994h1.597v-2.849c.22.352.478.588.783.727.302.135.617.204.95.204.374 0 .707-.06 1.012-.198M724.963-203.834c-.214-.214-.358-.51-.418-.887h2.72c-.034.403-.17.701-.415.906a1.451 1.451 0 0 1-.937.311c-.421 0-.726-.11-.95-.33m2.371 1.349a2.443 2.443 0 0 0 1.026-.88c.242-.347.412-.752.487-1.214.035-.268.06-.658.044-1.164h-4.374c.037-.6.251-1 .632-1.248.248-.145.534-.217.868-.217.352 0 .641.088.865.273.125.094.23.223.323.403h1.61c-.043-.362-.242-.714-.584-1.066-.538-.58-1.293-.872-2.255-.872-.808 0-1.5.249-2.126.736-.604.478-.912 1.265-.912 2.359 0 1.028.28 1.802.833 2.352.56.538 1.27.815 2.145.815.519 0 1-.098 1.418-.277M733.077-202.222c.016 0 .07 0 .138-.012v-1.573c-.107.003-.195.016-.264.02h-.192c-.635 0-1.056-.202-1.283-.605-.107-.232-.176-.578-.176-1.06v-2.833h-1.582v5.922h1.504v-1.022c.245.393.462.66.635.808.299.236.673.368 1.15.368.023 0 .048 0 .07-.013M734.16-202.363h1.584v-5.922h-1.585zm1.581.71h-1.585v1.428h1.585zM738.854-203.834c-.224-.214-.368-.51-.416-.887h2.708c-.022.403-.16.701-.421.906-.252.207-.554.311-.925.311-.409 0-.723-.11-.946-.33m2.361 1.349a2.476 2.476 0 0 0 1.038-.88c.239-.347.396-.752.475-1.214.04-.268.056-.658.044-1.164h-4.362c.035-.6.236-1 .635-1.248.236-.145.52-.217.862-.217.355 0 .638.088.855.273.136.094.233.223.33.403h1.604c-.047-.362-.235-.714-.578-1.066-.544-.58-1.286-.872-2.261-.872a3.3 3.3 0 0 0-2.114.736c-.606.478-.921 1.265-.921 2.359 0 1.028.277 1.802.843 2.352.54.538 1.26.815 2.135.815.532 0 .997-.098 1.415-.277M744.839-206.362c.019-.27.085-.478.207-.591.199-.217.56-.315 1.095-.315.327 0 .572.05.755.136.185.085.283.232.283.408 0 .177-.076.3-.22.403-.16.082-.705.233-1.667.45-.689.176-1.17.377-1.444.632-.28.232-.412.588-.412 1.047 0 .547.211 1.006.66 1.393.428.387 1.051.588 1.85.588.76 0 1.368-.145 1.843-.446.478-.293.76-.8.82-1.52h-1.588c-.025.199-.072.356-.17.472-.166.205-.462.309-.883.309-.34 0-.582-.048-.73-.158-.141-.1-.22-.223-.22-.361 0-.173.079-.3.236-.393.16-.073.708-.214 1.642-.416.625-.135 1.103-.358 1.405-.654.308-.286.463-.66.463-1.103 0-.592-.214-1.057-.673-1.425-.447-.377-1.12-.563-2.066-.563-.947 0-1.645.201-2.11.591-.44.403-.683.893-.683 1.516zM463.423-165.182v-16.975h16.11v-4.55h-42.865v4.55h9.346v16.975h6.352v-17.262h4.705v17.262zM505.823-177.564h-7.076v4.094h7.076zm18.362 4.094v4.51h-42.831v-4.51h11.04v-4.094h-5.92v-4.516h25.189v-9.34h6.742v13.856h-6.23v4.094zm-101.556-6.685v-5.604c0-.793-.371-1.142-1.189-1.142h-14.365c-.811 0-1.17.35-1.17 1.142v5.604zm-29.79 7.736h18.063v-3.224h-11.73v-12.333c0-2.214 1.296-3.444 3.579-3.444h23.02c2.289 0 3.575 1.23 3.575 3.444v12.333h-11.727v3.224h18.06v4.519h-42.84zM502.431-161.58c-2.965 0-5.129 2.154-5.129 5.088 0 2.969 2.164 5.11 5.13 5.11 2.94 0 5.1-2.141 5.1-5.11 0-2.934-2.16-5.088-5.1-5.088m0 14.72c-6.973 0-11.85-3.955-11.85-9.632 0-5.657 4.877-9.607 11.85-9.607 6.962 0 11.82 3.95 11.82 9.607 0 5.677-4.858 9.633-11.82 9.633M724.168-161.35c-2.475 0-4.274 2.041-4.274 4.859 0 2.837 1.799 4.871 4.274 4.871 2.453 0 4.252-2.034 4.252-4.871 0-2.818-1.8-4.859-4.252-4.859m0 14.054c-6.167 0-10.472-3.777-10.472-9.195 0-5.406 4.305-9.183 10.472-9.183 6.151 0 10.453 3.777 10.453 9.183 0 5.418-4.302 9.195-10.453 9.195M588.195-157.64c2.45 0 4.242-2.038 4.242-4.871 0-2.811-1.793-4.865-4.242-4.865-2.488 0-4.274 2.054-4.274 4.865 0 2.833 1.786 4.871 4.274 4.871m22.544-5.472v14.897h-6.707v-29.535H591.5v6.462c4.336 1.104 7.148 4.409 7.148 8.777 0 2.082-.642 3.93-1.786 5.396h4.374v4.378h-9.66v4.318h-6.74v-4.318h-9.604v-4.378h4.267c-1.128-1.465-1.77-3.314-1.77-5.396 0-4.35 2.77-7.63 7.06-8.746v-6.493h-11.692v-4.52h30.935v-9.107h6.707v23.737h5.758v4.528z" style="fill:#231f20;fill-opacity:1;fill-rule:nonzero;stroke:none;stroke-width:3.14474" transform="matrix(1.33333 0 0 -1.33333 -215.747 219.072)"/></svg>